<svg width="35" height="41" viewBox="0 0 35 41" fill="none" xmlns="http://www.w3.org/2000/svg">
<path d="M31.6193 40.3585L20.483 27.2945C19.4886 28.2276 18.3452 28.9663 17.0526 29.5107C15.7599 30.055 14.3845 30.3272 12.9261 30.3272C9.31345 30.3272 6.25625 28.8598 3.75455 25.9251C1.25152 22.9888 0 19.4016 0 15.1636C0 10.9256 1.25152 7.3384 3.75455 4.40211C6.25625 1.46737 9.31345 0 12.9261 0C16.5388 0 19.5967 1.46737 22.0997 4.40211C24.6014 7.3384 25.8523 10.9256 25.8523 15.1636C25.8523 16.8743 25.6203 18.4879 25.1562 20.0043C24.6922 21.5206 24.0625 22.862 23.267 24.0284L34.4531 37.1508C34.8177 37.5785 35 38.1034 35 38.7255C35 39.3476 34.8011 39.8919 34.4034 40.3585C34.0388 40.7862 33.5748 41 33.0114 41C32.4479 41 31.9839 40.7862 31.6193 40.3585ZM12.9261 25.6614C15.4119 25.6614 17.5252 24.6412 19.2659 22.6007C21.0053 20.5587 21.875 18.0797 21.875 15.1636C21.875 12.2475 21.0053 9.76846 19.2659 7.72643C17.5252 5.68595 15.4119 4.66572 12.9261 4.66572C10.4403 4.66572 8.32708 5.68595 6.58636 7.72643C4.84697 9.76846 3.97727 12.2475 3.97727 15.1636C3.97727 18.0797 4.84697 20.5587 6.58636 22.6007C8.32708 24.6412 10.4403 25.6614 12.9261 25.6614Z" fill="#2F2E2E"/>
</svg>
